P2
# Created by IrfanView
15  17
255
247	70	25	214	175	46	134	255	191	191	127	6	46	151	255	
72	255	118	247	255	255	46	221	191	85	46	191	255	255	120	
72	237	177	191	197	255	177	46	197	31	197	134	221	255	120	
255	230	62	177	247	158	127	79	6	151	237	79	134	247	255	
134	158	6	46	175	151	36	6	175	46	247	6	141	158	120	
255	85	79	111	15	6	221	191	102	6	163	191	255	23	230	
151	205	6	102	151	6	6	6	6	6	6	6	6	6	163	
118	255	118	141	23	191	85	6	6	6	6	6	85	205	85	
255	118	247	102	6	85	255	163	134	85	163	230	255	163	23	
72	247	85	247	118	6	247	255	255	255	255	205	163	6	163	
72	255	151	62	255	6	46	255	118	134	70	6	6	102	255	
72	255	247	102	255	15	102	6	6	6	6	102	191	23	205	
72	255	102	247	255	177	118	191	134	205	255	255	205	85	255	
72	255	175	151	118	163	230	221	151	255	230	118	6	23	175	
72	255	118	230	255	255	255	205	6	46	118	6	151	247	120	
72	255	151	255	134	134	151	177	85	118	6	85	255	255	120	
72	255	102	134	247	255	134	70	221	85	255	255	164	164	255	
